<?xml version="1.0" encoding="utf-8"?>
<!-- Generator: Adobe Illustrator 23.0.2, SVG Export Plug-In . SVG Version: 6.00 Build 0)  -->
<svg version="1.1" xmlns="http://www.w3.org/2000/svg" xmlns:xlink="http://www.w3.org/1999/xlink" x="0px" y="0px"
	 viewBox="0 0 841.9 595.3" style="enable-background:new 0 0 841.9 595.3;" xml:space="preserve">
<style type="text/css">
	.st0{fill:none;stroke:#FFFFFF;stroke-width:4;stroke-linecap:round;stroke-miterlimit:10;}
</style>
<g id="Layer_4">
</g>
<g id="Layer_3">
	<line class="st0" x1="257.8" y1="40.3" x2="194" y2="83.9"/>
	<line class="st0" x1="177.3" y1="109.3" x2="153.4" y2="150"/>
	<line class="st0" x1="279.5" y1="36.9" x2="307.3" y2="32.9"/>
	<line class="st0" x1="340.1" y1="25.9" x2="307.3" y2="32.9"/>
	<line class="st0" x1="358.9" y1="24" x2="401.6" y2="38.9"/>
	<line class="st0" x1="478" y1="99.4" x2="498.9" y2="134.2"/>
	<line class="st0" x1="502.9" y1="173.9" x2="498.9" y2="134.2"/>
	<line class="st0" x1="512.8" y1="190.7" x2="502.9" y2="173.9"/>
	<line class="st0" x1="488.5" y1="233.4" x2="512.8" y2="190.7"/>
	<line class="st0" x1="194" y1="83.9" x2="182.2" y2="95.4"/>
	<line class="st0" x1="177.3" y1="109.3" x2="182.2" y2="95.4"/>
	<line class="st0" x1="257.8" y1="40.3" x2="270.6" y2="45.8"/>
	<line class="st0" x1="279.5" y1="36.9" x2="270.6" y2="45.8"/>
	<line class="st0" x1="340.1" y1="25.9" x2="358.9" y2="24"/>
	<line class="st0" x1="401.6" y1="38.9" x2="431.4" y2="54.7"/>
	<line class="st0" x1="445.3" y1="56.7" x2="431.4" y2="54.7"/>
	<line class="st0" x1="458.2" y1="74.6" x2="445.3" y2="56.7"/>
	<line class="st0" x1="478" y1="99.4" x2="458.2" y2="74.6"/>
	<line class="st0" x1="488.5" y1="233.4" x2="473.1" y2="232.4"/>
	<line class="st0" x1="153.4" y1="150" x2="153.4" y2="150"/>
	<line class="st0" x1="153.4" y1="169.9" x2="153.4" y2="150"/>
	<line class="st0" x1="153.4" y1="187.8" x2="153.4" y2="169.9"/>
	<line class="st0" x1="171.3" y1="200.2" x2="153.4" y2="187.8"/>
	<line class="st0" x1="162.4" y1="212.1" x2="171.3" y2="200.2"/>
	<line class="st0" x1="179.7" y1="232.9" x2="162.4" y2="212.1"/>
	<line class="st0" x1="201.1" y1="232.9" x2="179.7" y2="232.9"/>
	<line class="st0" x1="242.8" y1="232.9" x2="235.8" y2="242.4"/>
	<line class="st0" x1="201.1" y1="232.9" x2="201.1" y2="232.9"/>
	<line class="st0" x1="201.1" y1="232.9" x2="205" y2="242.4"/>
	<line class="st0" x1="235.8" y1="242.4" x2="205" y2="242.4"/>
	<line class="st0" x1="251.7" y1="237.6" x2="242.8" y2="232.9"/>
	<line class="st0" x1="247.2" y1="251.3" x2="251.7" y2="237.6"/>
	<line class="st0" x1="259.6" y1="262.2" x2="247.2" y2="251.3"/>
	<line class="st0" x1="288.4" y1="271.1" x2="259.6" y2="262.2"/>
	<line class="st0" x1="331.9" y1="271.1" x2="288.4" y2="271.1"/>
	<line class="st0" x1="345.3" y1="260.1" x2="331.9" y2="271.1"/>
	<line class="st0" x1="365.1" y1="260.1" x2="345.3" y2="260.1"/>
	<line class="st0" x1="414.9" y1="304.9" x2="391.2" y2="294.9"/>
	<line class="st0" x1="365.1" y1="260.1" x2="380.8" y2="279.8"/>
	<line class="st0" x1="391.2" y1="294.9" x2="380.8" y2="279.8"/>
	<line class="st0" x1="414.9" y1="304.9" x2="420.2" y2="295.2"/>
	<line class="st0" x1="403" y1="270" x2="408.4" y2="280.2"/>
	<line class="st0" x1="420.2" y1="295.2" x2="408.4" y2="280.2"/>
	<line class="st0" x1="414.3" y1="251.9" x2="414.3" y2="265.6"/>
	<line class="st0" x1="403" y1="270" x2="414.3" y2="265.6"/>
	<line class="st0" x1="369.7" y1="247.2" x2="382.6" y2="261.9"/>
	<line class="st0" x1="403" y1="270" x2="382.6" y2="261.9"/>
	<line class="st0" x1="369.7" y1="247.2" x2="392.8" y2="248.6"/>
	<line class="st0" x1="414.3" y1="251.9" x2="392.8" y2="248.6"/>
	<line class="st0" x1="442.8" y1="254.5" x2="414.3" y2="251.9"/>
	<line class="st0" x1="464" y1="247.9" x2="442.8" y2="254.5"/>
	<line class="st0" x1="473.1" y1="232.4" x2="464" y2="247.9"/>
	<line class="st0" x1="466.5" y1="200.2" x2="476.1" y2="214.6"/>
	<line class="st0" x1="473.1" y1="232.4" x2="476.1" y2="214.6"/>
	<line class="st0" x1="502.9" y1="173.9" x2="500.6" y2="190.6"/>
	<line class="st0" x1="493.3" y1="197" x2="500.6" y2="190.6"/>
	<line class="st0" x1="476.1" y1="214.6" x2="488.5" y2="212.1"/>
	<line class="st0" x1="493.3" y1="197" x2="488.5" y2="212.1"/>
	<line class="st0" x1="353.6" y1="193.8" x2="367.2" y2="193.8"/>
	<line class="st0" x1="347.9" y1="207.4" x2="351.4" y2="204.6"/>
	<line class="st0" x1="353.6" y1="193.8" x2="351.4" y2="204.6"/>
	<line class="st0" x1="355.2" y1="216" x2="347.9" y2="207.4"/>
	<line class="st0" x1="353.6" y1="223.5" x2="355.2" y2="216"/>
	<line class="st0" x1="356.8" y1="240.2" x2="353.6" y2="223.5"/>
	<line class="st0" x1="369.7" y1="247.2" x2="356.8" y2="240.2"/>
	<line class="st0" x1="363.3" y1="154" x2="372.9" y2="162.5"/>
	<line class="st0" x1="367.2" y1="193.8" x2="376.2" y2="182.3"/>
	<line class="st0" x1="372.9" y1="162.5" x2="371.7" y2="172.2"/>
	<line class="st0" x1="376.2" y1="182.3" x2="371.7" y2="172.2"/>
	<line class="st0" x1="338.6" y1="158.3" x2="349.7" y2="158.3"/>
	<line class="st0" x1="363.3" y1="154" x2="349.7" y2="158.3"/>
	<line class="st0" x1="373.9" y1="150" x2="363.3" y2="154"/>
	<line class="st0" x1="386" y1="150" x2="373.9" y2="150"/>
	<line class="st0" x1="412.6" y1="158.3" x2="386" y2="150"/>
	<line class="st0" x1="441.6" y1="145.7" x2="432.4" y2="150"/>
	<line class="st0" x1="412.6" y1="158.3" x2="432.4" y2="150"/>
	<line class="st0" x1="448.3" y1="177.2" x2="431.5" y2="158.3"/>
	<line class="st0" x1="412.6" y1="158.3" x2="431.5" y2="158.3"/>
	<line class="st0" x1="474.6" y1="174.3" x2="478.9" y2="178.8"/>
	<line class="st0" x1="490.9" y1="160" x2="485.6" y2="167.3"/>
	<line class="st0" x1="494" y1="173" x2="485.6" y2="167.3"/>
	<line class="st0" x1="474.6" y1="174.3" x2="485.6" y2="167.3"/>
	<line class="st0" x1="428.6" y1="112.2" x2="444.5" y2="113.4"/>
	<line class="st0" x1="453.4" y1="125.6" x2="444.5" y2="113.4"/>
	<line class="st0" x1="453.4" y1="152" x2="453.4" y2="125.6"/>
	<line class="st0" x1="474.6" y1="144" x2="468.5" y2="134.8"/>
	<line class="st0" x1="453.4" y1="133.1" x2="468.5" y2="134.8"/>
	<line class="st0" x1="490.9" y1="136.1" x2="468.5" y2="134.8"/>
	<line class="st0" x1="431.4" y1="54.7" x2="444.5" y2="87"/>
	<line class="st0" x1="428.6" y1="112.2" x2="438.3" y2="98.7"/>
	<line class="st0" x1="444.5" y1="87" x2="438.3" y2="98.7"/>
	<line class="st0" x1="457.1" y1="84.9" x2="444.5" y2="87"/>
	<line class="st0" x1="465.5" y1="112.8" x2="468.5" y2="100"/>
	<line class="st0" x1="457.1" y1="84.9" x2="468.5" y2="100"/>
	<line class="st0" x1="465.5" y1="112.8" x2="474.6" y2="116.8"/>
	<line class="st0" x1="490.9" y1="136.1" x2="488.3" y2="125.6"/>
	<line class="st0" x1="474.6" y1="116.8" x2="488.3" y2="125.6"/>
	<line class="st0" x1="399.3" y1="135.4" x2="419.3" y2="130.8"/>
	<line class="st0" x1="428.6" y1="112.2" x2="419.3" y2="130.8"/>
	<line class="st0" x1="399.3" y1="85.9" x2="412.6" y2="79.4"/>
	<line class="st0" x1="424" y1="85.9" x2="412.6" y2="79.4"/>
	<line class="st0" x1="418.3" y1="63.9" x2="412.6" y2="68.9"/>
	<line class="st0" x1="412.6" y1="79.4" x2="412.6" y2="68.9"/>
	<line class="st0" x1="330" y1="106.4" x2="323.7" y2="121.2"/>
	<line class="st0" x1="264.2" y1="173" x2="320.3" y2="138.8"/>
	<line class="st0" x1="323.7" y1="121.2" x2="320.3" y2="138.8"/>
	<line class="st0" x1="331.9" y1="133.1" x2="323.7" y2="121.2"/>
	<line class="st0" x1="344.4" y1="123.5" x2="331.9" y2="133.1"/>
	<line class="st0" x1="353.6" y1="125.6" x2="344.4" y2="123.5"/>
	<line class="st0" x1="360.4" y1="114.8" x2="353.6" y2="125.6"/>
	<line class="st0" x1="376.2" y1="127.2" x2="353.6" y2="125.6"/>
	<line class="st0" x1="384.1" y1="130.8" x2="376.2" y2="127.2"/>
	<line class="st0" x1="405.7" y1="92.9" x2="392.8" y2="106.4"/>
	<line class="st0" x1="376.2" y1="127.2" x2="381.3" y2="116.8"/>
	<line class="st0" x1="392.8" y1="106.4" x2="381.3" y2="116.8"/>
	<line class="st0" x1="346.3" y1="60.1" x2="368.1" y2="46.8"/>
	<line class="st0" x1="388.7" y1="53.5" x2="368.1" y2="46.8"/>
	<line class="st0" x1="387.1" y1="70.9" x2="388.7" y2="53.5"/>
	<line class="st0" x1="387.9" y1="37.9" x2="388.7" y2="53.5"/>
	<line class="st0" x1="408.7" y1="43.1" x2="388.7" y2="53.5"/>
	<line class="st0" x1="357.2" y1="50.1" x2="349.7" y2="41.3"/>
	<line class="st0" x1="357.2" y1="31.4" x2="349.7" y2="41.3"/>
	<line class="st0" x1="342.1" y1="29.4" x2="326.8" y2="41.3"/>
	<line class="st0" x1="326.8" y1="66.4" x2="329.6" y2="62.1"/>
	<line class="st0" x1="326.8" y1="41.3" x2="329.6" y2="62.1"/>
	<line class="st0" x1="293.4" y1="72.7" x2="297.3" y2="65.7"/>
	<line class="st0" x1="288.4" y1="53.5" x2="297.3" y2="65.7"/>
	<line class="st0" x1="307.3" y1="32.9" x2="288.4" y2="53.5"/>
	<line class="st0" x1="312.4" y1="69.2" x2="311.9" y2="82.7"/>
	<line class="st0" x1="334.5" y1="89.7" x2="311.9" y2="82.7"/>
	<line class="st0" x1="352.5" y1="89.7" x2="334.5" y2="89.7"/>
	<line class="st0" x1="355.2" y1="99.6" x2="352.5" y2="89.7"/>
	<line class="st0" x1="368.6" y1="64.3" x2="352.5" y2="89.7"/>
	<line class="st0" x1="293.4" y1="112.8" x2="334.5" y2="89.7"/>
	<line class="st0" x1="292.3" y1="89.7" x2="297.9" y2="94.6"/>
	<line class="st0" x1="297.9" y1="110.3" x2="297.9" y2="94.6"/>
	<line class="st0" x1="292.3" y1="121.5" x2="293.4" y2="112.8"/>
	<line class="st0" x1="279.2" y1="124.5" x2="292.3" y2="121.5"/>
	<line class="st0" x1="239.3" y1="144.5" x2="253.4" y2="135.4"/>
	<line class="st0" x1="279.2" y1="124.5" x2="253.4" y2="135.4"/>
	<line class="st0" x1="239.3" y1="92.9" x2="253.4" y2="106.4"/>
	<line class="st0" x1="258.9" y1="133.1" x2="253.4" y2="106.4"/>
	<line class="st0" x1="262.4" y1="79.4" x2="270.8" y2="87"/>
	<line class="st0" x1="269.1" y1="102.5" x2="270.8" y2="87"/>
	<line class="st0" x1="270.6" y1="45.8" x2="259.9" y2="62.2"/>
	<line class="st0" x1="262.4" y1="79.4" x2="259.9" y2="62.2"/>
	<line class="st0" x1="235.8" y1="70.8" x2="235.8" y2="82.7"/>
	<line class="st0" x1="262.4" y1="79.4" x2="249.5" y2="77"/>
	<line class="st0" x1="235.8" y1="82.7" x2="249.5" y2="77"/>
	<line class="st0" x1="220.4" y1="94.7" x2="235.8" y2="82.7"/>
	<line class="st0" x1="220.4" y1="114.8" x2="220.4" y2="94.7"/>
	<line class="st0" x1="198.2" y1="117.1" x2="220.4" y2="114.8"/>
	<line class="st0" x1="205" y1="87" x2="205" y2="92.9"/>
	<line class="st0" x1="220.4" y1="94.7" x2="205" y2="92.9"/>
	<line class="st0" x1="288.4" y1="192.3" x2="322" y2="173.8"/>
	<line class="st0" x1="338.6" y1="158.3" x2="322" y2="173.8"/>
	<line class="st0" x1="305.2" y1="169.9" x2="308.7" y2="179.2"/>
	<line class="st0" x1="351.5" y1="200.2" x2="331.9" y2="200.2"/>
	<line class="st0" x1="305.2" y1="226.7" x2="331.9" y2="200.2"/>
	<line class="st0" x1="349.7" y1="259.7" x2="331.9" y2="247.9"/>
	<line class="st0" x1="318.5" y1="213.5" x2="331.9" y2="247.9"/>
	<line class="st0" x1="305.2" y1="226.7" x2="301" y2="240.2"/>
	<line class="st0" x1="251.7" y1="237.6" x2="275" y2="237.6"/>
	<line class="st0" x1="288.4" y1="244.5" x2="275" y2="237.6"/>
	<line class="st0" x1="301" y1="240.2" x2="288.4" y2="244.5"/>
	<line class="st0" x1="313.9" y1="237.6" x2="301" y2="240.2"/>
	<line class="st0" x1="328.2" y1="238.4" x2="313.9" y2="237.6"/>
	<line class="st0" x1="288.4" y1="271.1" x2="313.9" y2="258.7"/>
	<line class="st0" x1="337.1" y1="252.9" x2="313.9" y2="258.7"/>
	<line class="st0" x1="369.7" y1="247.2" x2="357" y2="258.7"/>
	<line class="st0" x1="201.1" y1="232.9" x2="233.5" y2="224.8"/>
	<line class="st0" x1="242.8" y1="232.9" x2="233.5" y2="224.8"/>
	<line class="st0" x1="266.6" y1="224.8" x2="233.5" y2="224.8"/>
	<line class="st0" x1="278" y1="211.7" x2="266.6" y2="224.8"/>
	<line class="st0" x1="288.4" y1="211.7" x2="278" y2="211.7"/>
	<line class="st0" x1="264.2" y1="173" x2="256.2" y2="193.8"/>
	<line class="st0" x1="250.1" y1="158.3" x2="251.7" y2="166"/>
	<line class="st0" x1="242.6" y1="170.8" x2="251.7" y2="166"/>
	<line class="st0" x1="264.2" y1="173" x2="251.7" y2="166"/>
	<line class="st0" x1="197.4" y1="133.1" x2="217.3" y2="134"/>
	<line class="st0" x1="239.3" y1="144.5" x2="235.8" y2="156.1"/>
	<line class="st0" x1="217.3" y1="134" x2="239.3" y2="144.5"/>
	<line class="st0" x1="235.8" y1="156.1" x2="223.8" y2="173.6"/>
	<line class="st0" x1="223.4" y1="204.6" x2="223.8" y2="173.6"/>
	<line class="st0" x1="225.9" y1="199.2" x2="233.5" y2="202.8"/>
	<line class="st0" x1="233.5" y1="224.8" x2="233.5" y2="202.8"/>
	<line class="st0" x1="223.4" y1="204.6" x2="214.6" y2="212.1"/>
	<line class="st0" x1="212.7" y1="197.3" x2="223.4" y2="204.6"/>
	<line class="st0" x1="188.1" y1="206.1" x2="197.4" y2="193.3"/>
	<line class="st0" x1="191.8" y1="187.1" x2="197.4" y2="193.3"/>
	<line class="st0" x1="205" y1="183.1" x2="209.3" y2="189.1"/>
	<line class="st0" x1="223.6" y1="189.1" x2="209.3" y2="189.1"/>
	<line class="st0" x1="197.8" y1="193.2" x2="209.3" y2="189.1"/>
	<line class="st0" x1="181.9" y1="135.4" x2="171" y2="147.9"/>
	<line class="st0" x1="171" y1="170.2" x2="171" y2="147.9"/>
	<line class="st0" x1="181.9" y1="183.4" x2="171" y2="170.2"/>
	<line class="st0" x1="181.9" y1="135.4" x2="192.8" y2="144.5"/>
	<line class="st0" x1="195.1" y1="162.2" x2="192.8" y2="144.5"/>
	<line class="st0" x1="190.4" y1="173.6" x2="195.1" y2="162.2"/>
	<line class="st0" x1="197" y1="178.8" x2="190.4" y2="173.6"/>
	<line class="st0" x1="203.6" y1="170.8" x2="197" y2="178.8"/>
	<line class="st0" x1="171" y1="152" x2="153.4" y2="163.6"/>
	<line class="st0" x1="355.2" y1="216" x2="376.2" y2="199.2"/>
	<line class="st0" x1="395" y1="193.2" x2="376.2" y2="199.2"/>
	<line class="st0" x1="416.5" y1="194" x2="395" y2="193.2"/>
	<line class="st0" x1="450.8" y1="208.3" x2="416.5" y2="194"/>
	<line class="st0" x1="392.8" y1="182.2" x2="376.2" y2="186.1"/>
	<line class="st0" x1="416.5" y1="180.5" x2="392.8" y2="182.2"/>
	<line class="st0" x1="439.9" y1="186.1" x2="416.5" y2="180.5"/>
	<line class="st0" x1="466.5" y1="200.2" x2="439.9" y2="186.1"/>
	<line class="st0" x1="493.3" y1="197" x2="471.6" y2="207.4"/>
	<line class="st0" x1="414.9" y1="304.9" x2="585.5" y2="438.5"/>
	<path class="st0" d="M244.4,406.1"/>
	<path class="st0" d="M688.9,490.6"/>
	<path class="st0" d="M555.8,373"/>
	<path class="st0" d="M378.8,569.9L244.4,450.3v-44.2l309.7-32.8l134.3,117.4l-0.1,46.2l-309.4,32.8c-0.1,0-0.2-0.1-0.2-0.2
		l0.4-44.9l309.4-33.9"/>
	<line class="st0" x1="585.5" y1="438.5" x2="585.3" y2="451.6"/>
	<line class="st0" x1="244.4" y1="406.1" x2="379.1" y2="524.5"/>
</g>
<g id="Layer_5">
	<ellipse class="st0" cx="464.5" cy="447.2" rx="150.7" ry="42.9"/>
	<ellipse class="st0" cx="463.2" cy="447.2" rx="45" ry="12.8"/>
</g>
</svg>
